<?xml version="1.0" standalone="no"?>
<!DOCTYPE svg PUBLIC "-//W3C//DTD SVG 20010904//EN"
 "http://www.w3.org/TR/2001/REC-SVG-20010904/DTD/svg10.dtd">
<svg version="1.0" xmlns="http://www.w3.org/2000/svg"
 width="512.000000pt" height="512.000000pt" viewBox="0 0 512.000000 512.000000"
 preserveAspectRatio="xMidYMid meet">
<metadata>
Created by potrace 1.11, written by Peter Selinger 2001-2013
</metadata>
<g transform="translate(0.000000,512.000000) scale(0.100000,-0.100000)"
fill="#000000" stroke="none">
<path d="M0 2560 l0 -2560 2560 0 2560 0 0 2560 0 2560 -2560 0 -2560 0 0
-2560z m4850 2275 c0 -8 0 -1023 0 -2255 0 -1232 0 -2258 0 -2280 l0 -40
-2290 0 -2290 0 -2 2291 c-2 1260 -1 2293 1 2295 2 2 1034 4 2293 4 2027 0
2288 -2 2288 -15z"/>
<path d="M550 2555 l0 -2005 2010 0 2010 0 0 2005 0 2005 -2010 0 -2010 0 0
-2005z m1492 940 c60 -110 124 -227 141 -260 116 -219 373 -685 377 -685 3 0
73 125 155 277 83 152 223 410 311 572 l161 296 153 3 152 3 -35 -63 c-19 -35
-157 -286 -307 -558 -150 -272 -312 -567 -361 -656 l-89 -160 0 -427 0 -427
-140 0 -140 0 0 426 0 426 -287 522 c-158 286 -320 582 -361 656 -41 74 -90
163 -109 198 l-35 63 153 -3 152 -3 109 -200z"/>
</g>
</svg>
